<?xml version="1.0" standalone="no"?>
<!DOCTYPE svg PUBLIC "-//W3C//DTD SVG 1.1//EN" "http://www.w3.org/Graphics/SVG/1.1/DTD/svg11.dtd" >
<svg xmlns="http://www.w3.org/2000/svg">
<metadata></metadata>
<defs>
<font id="lt_oksanaregular" horiz-adv-x="1200" >
<font-face units-per-em="2048" ascent="1638" descent="-410" />
<missing-glyph horiz-adv-x="508" />
<glyph horiz-adv-x="2048" />
<glyph horiz-adv-x="2048" />
<glyph unicode="&#xd;" horiz-adv-x="508" />
<glyph unicode=" "  horiz-adv-x="508" />
<glyph unicode="&#x09;" horiz-adv-x="508" />
<glyph unicode="&#xa0;" horiz-adv-x="508" />
<glyph unicode="!" horiz-adv-x="378" d="M75 114q0 30 15.5 57.5t42.5 42t56 14.5t56 -14.5t42.5 -42t15.5 -57.5t-15 -57t-42 -42t-57 -15t-57 15t-42 42t-15 57zM121 320v1544h136v-1544h-136z" />
<glyph unicode="&#x22;" horiz-adv-x="610" d="M100 1276v588h130v-588h-130zM380 1276v588h130v-588h-130z" />
<glyph unicode="#" d="M50 659v130h289v263h-289v130h289v288h130v-288h263v288h130v-288h288v-130h-288v-263h288v-130h-288v-289h-130v289h-263v-289h-130v289h-289zM469 789h263v263h-263v-263z" />
<glyph unicode="$" horiz-adv-x="786" d="M50 313q0 33 14 93l133 -48q-5 -31 -5 -46q0 -42 19 -81q32 -65 100 -89q28 -9 56 -9q37 0 74 17q66 32 90 103q11 31 11 61q0 40 -19 77l-389 647q-32 65 -32 133q0 50 18 102q42 121 159 178q24 12 49 20v214h130v-203q32 -4 65 -15q65 -23 111 -66q42 -38 69 -94 q33 -66 33 -134q0 -34 -15 -94l-133 48q6 31 6 46q0 42 -20 81q-32 65 -100 89q-28 10 -56 10q-37 0 -74 -18q-66 -32 -90 -103q-10 -31 -10 -61q0 -40 18 -77l389 -647q32 -65 32 -133q0 -50 -18 -102q-42 -121 -159 -178q-24 -12 -48 -20v-213h-130v202q-33 4 -66 15 q-65 23 -111 66q-42 38 -69 94q-32 66 -32 135z" />
<glyph unicode="%" horiz-adv-x="2045" d="M75 1328q0 166 118 284t285 118q68 0 128 -19q86 -29 157 -98q61 -62 90 -137q27 -68 27 -148q0 -167 -118 -285t-284 -118q-167 0 -285 118t-118 285zM201 1329q0 -117 81 -197t195 -80q115 0 196 80t81 197q0 112 -81 193t-196 81q-114 0 -195 -81t-81 -193zM346 -8 l1205 1893l148 -31l-1206 -1892zM1165 558q0 166 118 284t285 118q68 0 128 -19q86 -29 157 -98q61 -62 90 -137q27 -68 27 -148q0 -167 -118 -285t-284 -118q-167 0 -285 118t-118 285zM1291 559q0 -117 81 -197t195 -80q115 0 196 80t81 197q0 112 -81 193t-196 81 q-114 0 -195 -81t-81 -193z" />
<glyph unicode="&#x26;" horiz-adv-x="1404" d="M75 550q0 227 162 389q80 80 176 120q-39 25 -73 59q-118 118 -118 285q0 166 118 284t285 118q68 0 128 -19q86 -29 157 -98q61 -62 90 -137q27 -68 27 -148q0 -145 -89 -254l-89 92q52 70 52 163q0 112 -81 193t-196 81q-114 0 -195 -81t-81 -193q0 -117 81 -197 q76 -75 182 -80v-157q-165 -5 -283 -123q-124 -124 -124 -297q0 -174 123.5 -297t296.5 -123q175 0 298 123t123 297q0 111 -51 203q-61 -2 -108 -21q-86 -37 -121 -124q-12 -29 -16 -57h-126q5 52 26 105q55 134 189 190q32 14 63 21q-1 0 -2 1q22 5 44 7q14 2 28 2 q41 1 82 15q6 2 13 5q86 37 122 124q11 28 15 55h126q-5 -51 -26 -102q-53 -130 -180 -187q52 -108 52 -237q0 -228 -161 -389t-389 -161q-227 0 -388.5 161t-161.5 389z" />
<glyph unicode="'" horiz-adv-x="280" d="M75 1276v588h130v-588h-130z" />
<glyph unicode="(" horiz-adv-x="528" d="M76 -404v1892q0 145 90 250q91 106 272 126h15v-140q-139 -19 -189.5 -84t-51.5 -135v-1926q1 -70 51.5 -135t189.5 -84v-140h-15q-181 20 -272 126q-90 105 -90 250z" />
<glyph unicode=")" horiz-adv-x="528" d="M76 -640q139 19 189.5 84t51.5 135v1926q-1 70 -51.5 135t-189.5 84v140h15q181 -20 272 -126q90 -105 90 -250v-1892q0 -145 -90 -250q-91 -106 -272 -126h-15v140z" />
<glyph unicode="*" horiz-adv-x="938" d="M75 1402v136h230l-163 163l96 96l163 -163v230h136v-230l163 163l96 -96l-163 -163h230v-136h-230l163 -163l-96 -96l-163 163v-230h-136v230l-163 -163l-96 96l163 163h-230z" />
<glyph unicode="+" d="M122 669v130h413v413h130v-413h412v-130h-412v-412h-130v412h-413z" />
<glyph unicode="," horiz-adv-x="277" d="M-77 -104q148 145 148 304h131q-3 -237 -211 -424z" />
<glyph unicode="-" horiz-adv-x="825" d="M75 606v130h675v-130h-675z" />
<glyph unicode="." horiz-adv-x="378" d="M75 114q0 30 15.5 57.5t42.5 42t56 14.5t56 -14.5t42.5 -42t15.5 -57.5t-15 -57t-42 -42t-57 -15t-57 15t-42 42t-15 57z" />
<glyph unicode="/" horiz-adv-x="1022" d="M0 -10l904 1939l118 -55l-904 -1939z" />
<glyph unicode="0" d="M197 403v691q0 166 118 284t285 118q68 0 128 -19q86 -29 157 -98q61 -62 90 -137q27 -68 27 -148v-691q0 -167 -118 -285t-284 -118q-167 0 -285 118t-118 285zM323 404q0 -117 81 -197t195 -80q115 0 196 80t81 197l-1 690v3q0 111 -80 191q-81 81 -196 81 q-114 0 -195 -81q-80 -80 -80 -191v-3z" />
<glyph unicode="1" d="M460 1050l280 481v-1531h-136v1050h-144z" />
<glyph unicode="2" d="M198 0l493 854q103 198 103 241q1 12 1 24q0 97 -72 169q-82 81 -196 81t-195 -81q-17 -17 -30 -35l-91 91q14 17 31 34q118 118 285 118q68 0 128 -19q87 -29 157 -98q62 -62 90 -137q5 -12 9 -24q19 -58 19 -124q-10 -131 -89 -254l-407 -704h568v-136h-804z" />
<glyph unicode="3" d="M91 235l96 96q24 -49 63 -91q8 -9 16 -17q122 -122 295 -122t295.5 122t122.5 295q0 172 -122 295q-91 90 -210 114q-41 8 -86 8q-36 0 -70 -5l78 135l170 295h-285v136h521l-260 -452q130 -36 233 -139q160 -161 160 -387q0 -227 -160 -387t-387 -160q-220 0 -378 152 l-8 8q-50 50 -84 104z" />
<glyph unicode="4" d="M165 320l710 1231v-1095h159v-136h-159v-320h-136v320h-574zM401 456h338v586z" />
<glyph unicode="5" d="M90 239l99 90q29 -57 78 -106q122 -122 295 -122t295.5 122t122.5 295q0 172 -122.5 294.5t-295.5 122.5q-107 0 -193 -46l-113 103l284 504h374v-136h-287l-176 -306q53 11 111 11q227 0 387 -160.5t160 -386.5q0 -227 -160 -387t-387 -160q-226 0 -386 160 q-51 51 -86 108z" />
<glyph unicode="6" d="M197 402q0 123 64 219l-2 1l506 874h156l-404 -699q40 8 83 8q167 0 285 -118t118 -285q0 -166 -118 -284t-285 -118q-68 0 -128 19q-87 29 -157 98q-62 62 -90 137q-28 68 -28 148zM323 401q0 -112 81.5 -193t195.5 -81t195.5 81t81.5 193q0 117 -81.5 197t-195.5 80 t-195 -80q-3 -2 -5 -5l-30 -35q-47 -68 -47 -157z" />
<glyph unicode="7" d="M89 0l785 1360h-555v136h791l-863 -1496h-158z" />
<glyph unicode="8" d="M197 403q0 166 118 284q36 36 77 61q-41 25 -77 61q-118 118 -118 285q0 166 118 284t285 118q68 0 128 -19q86 -29 157 -98q61 -62 90 -137q27 -68 27 -148q0 -167 -118 -285q-36 -36 -76 -61q41 -25 77 -60q61 -62 90 -137q27 -68 27 -148q0 -167 -118 -285t-284 -118 q-167 0 -285 118t-118 285zM323 404q0 -117 81 -197t195 -80q115 0 196 80t81 197q0 112 -81 193t-196 81q-114 0 -195 -81t-81 -193zM323 1095q0 -117 81 -197t195 -80q115 0 196 80t81 197q0 112 -81 193t-196 81q-114 0 -195 -81t-81 -193z" />
<glyph unicode="9" d="M197 1094q0 166 118 284t285 118q68 0 128 -19q87 -29 157 -98q62 -62 90 -137q28 -68 28 -148q0 -123 -64 -219l2 -1l-506 -874h-156l404 699q-40 -8 -83 -8q-167 0 -285 118t-118 285zM323 1095q0 -117 81.5 -197t195.5 -80t196 80q2 2 4 5l30 35q47 68 47 157 q0 112 -81.5 193t-195.5 81t-195.5 -81t-81.5 -193z" />
<glyph unicode=":" horiz-adv-x="378" d="M75 114q0 30 15.5 57.5t42.5 42t56 14.5t56 -14.5t42.5 -42t15.5 -57.5t-15 -57t-42 -42t-57 -15t-57 15t-42 42t-15 57zM75 622q0 30 15.5 57.5t42.5 42t56 14.5t56 -14.5t42.5 -42t15.5 -57.5t-15 -57t-42 -42t-57 -15t-57 15t-42 42t-15 57z" />
<glyph unicode=";" horiz-adv-x="446" d="M75 -196q101 99 133 204q-8 3 -16 7q-27 15 -42 42t-15 57t15.5 57.5t42.5 42t56 14.5t56 -14.5t46.5 -49t19.5 -85.5q-25 -212 -228 -395zM135 622q0 30 15.5 57.5t42.5 42t56 14.5t56 -14.5t42.5 -42t15.5 -57.5t-15 -57t-42 -42t-57 -15t-57 15t-42 42t-15 57z" />
<glyph unicode="&#x3c;" d="M100 745l1000 466v-144l-692 -322l692 -323v-143z" />
<glyph unicode="=" d="M122 539v130h955v-130h-955zM122 799v130h955v-130h-955z" />
<glyph unicode="&#x3e;" d="M100 279v143l692 323l-692 322v144l1000 -466z" />
<glyph unicode="?" horiz-adv-x="1114" d="M75 1387q0 108 52 212q41 86 105 144q70 66 168 101q81 26 159 26q30 0 61 -4q75 -11 148 -46q178 -87 243 -275q28 -82 28 -160q0 -106 -49 -206l-345 -569q-29 -57 -29 -107q0 -54 36 -98l-98 -99q-81 66 -81 175q0 107 78 252l304 512q33 68 33 140q0 54 -18 110 q-45 129 -168 189q-70 34 -143 34q-54 0 -108 -19q-130 -44 -190 -165q-34 -71 -34 -145q0 -28 5 -57l-144 -52q-13 55 -13 107zM457 122q0 31 16 58.5t43 42t58 14.5q29 0 56 -14.5t43 -42t16 -58.5q0 -30 -15.5 -58t-42.5 -43t-57 -15q-31 0 -58.5 15t-43 43t-15.5 58z " />
<glyph unicode="@" horiz-adv-x="1162" d="M116 376q0 49 3 102h-2l46 525h3q60 690 604 690q427 0 427 -399q0 -36 -3 -74l-80 -915h-118l6 70q-85 -70 -243 -70q-159 0 -260 103q-91 91 -91 214q0 15 1 30q13 142 132 244t278 102q158 0 231 -69l24 271q3 31 3 59q0 304 -318 304q-416 0 -469 -606h-2l-38 -435h2 q-4 -63 -4 -119q0 -267 87 -367q113 -128 294 -131h10q181 3 316 131l78 -107q-172 -151 -404 -156h-14q-233 5 -380 160q-119 126 -119 443zM544 631q0 -83 59 -142q66 -66 166 -66t179 67q53 45 73 103l10 116q-10 59 -57 106q-65 66 -165 66t-177.5 -66.5t-86.5 -162.5 q-1 -10 -1 -21z" />
<glyph unicode="A" horiz-adv-x="1361" d="M20 0l660 1884l661 -1884h-149l-211 601h-602l-210 -601h-149zM427 736h507l-254 724z" />
<glyph unicode="B" horiz-adv-x="1455" d="M125 0v1864h535v-1q152 -9 241.5 -105.5t89.5 -246.5q0 -160 -103 -267q171 -37 303 -169q184 -184 184 -445q0 -260 -184 -445q-171 -171 -409 -183v-2h-657zM261 136h520q183 11 316 144q145 146 145 350q0 205 -145 350q-142 142 -342 145v3h-494v-992zM261 1263h397 q83 14 135 65q70 69 70 179q-5 221 -248 221h-354v-465z" />
<glyph unicode="C" horiz-adv-x="2018" d="M100 927q0 62 8 127q48 386 358 627q257 200 571 200q63 0 128 -8q183 -23 342 -109l-111 -108q-119 56 -250 72q-55 7 -108 7q-265 0 -482 -169q-262 -204 -302 -531q-7 -54 -7 -107q0 -264 170 -481q203 -261 531 -303q55 -7 109 -7q265 0 482 169q216 169 283 430h151 q-74 -333 -344 -545q-256 -200 -570 -200q-63 0 -128 8q-389 49 -630 358q-201 259 -201 570z" />
<glyph unicode="D" horiz-adv-x="1286" d="M100 5l2 1864h168q402 -27 633 -269q253 -279 253 -666q0 -389 -257 -660q-234 -234 -600 -269h-199zM236 138q332 0 557 233t225 563q0 328 -218 566q-208 226 -531 226q-16 0 -33 -1v-1587z" />
<glyph unicode="E" horiz-adv-x="1174" d="M100 0v1864h1024v-136h-888v-991h275v-136h-275v-465h888v-136h-1024z" />
<glyph unicode="F" horiz-adv-x="796" d="M150 0v1864h666v-136h-530v-991h275v-136h-275v-601h-136z" />
<glyph unicode="G" horiz-adv-x="2043" d="M120 927q0 62 8 127q48 386 358 627q257 200 571 200q63 0 128 -8q183 -23 343 -109l-111 -108q-120 56 -251 72q-55 7 -108 7q-264 0 -482 -169q-261 -204 -302 -531q-7 -54 -7 -107q0 -264 170 -481q203 -261 531 -303q56 -7 109 -7q266 0 482 169q157 123 235 294 h-486v136h685q-74 -333 -344 -545q-256 -200 -570 -200q-63 0 -128 8q-389 49 -630 358q-201 259 -201 570z" />
<glyph unicode="H" horiz-adv-x="1274" d="M125 0v1864h136v-1127h752v1127h136v-1864h-136v601h-752v-601h-136z" />
<glyph unicode="I" horiz-adv-x="386" d="M125 0v1864h136v-1864h-136z" />
<glyph unicode="J" horiz-adv-x="524" d="M-260 -271l70 119q36 -27 78 -38q40 -11 78 -11q71 0 136 39q99 60 99 218v1808h138v-1814q0 -214 -142 -314q-100 -71 -223 -71q-52 0 -107 12q-71 16 -127 52z" />
<glyph unicode="K" horiz-adv-x="1615" d="M140 0v1864h136v-1591l919 1591h157l-470 -815q232 -68 416 -251q292 -293 292 -705v-93h-137v93q0 353 -251 606q-171 171 -392 226l-534 -925h-136z" />
<glyph unicode="L" horiz-adv-x="836" d="M170 0v1864h136v-1728h530v-136h-666z" />
<glyph unicode="M" horiz-adv-x="1801" d="M130 0v1864h60l724 -1209l699 1209h58v-1864h-136v1459l-621 -1076l-648 1076v-1459h-136z" />
<glyph unicode="N" horiz-adv-x="1284" d="M130 0v1853h53l835 -1447v1458h136v-1864h-58l-830 1437v-1437h-136z" />
<glyph unicode="O" horiz-adv-x="2194" d="M100 936q0 412 293 704.5t704 292.5q413 0 705 -292.5t292 -704.5q0 -413 -292 -705t-705 -292q-411 0 -704 292t-293 705zM248 936q0 -351 249.5 -600t599.5 -249q353 0 602 249t249 600q0 349 -249 599t-602 250q-350 0 -599.5 -250t-249.5 -599z" />
<glyph unicode="P" horiz-adv-x="1415" d="M120 0v1864h657v-2q238 -12 409 -183q184 -185 184 -445q0 -261 -184 -445q-171 -171 -409 -183v-5h-521v-601h-136zM256 736h494v3q200 3 342 145q145 145 145 350q0 204 -145 350q-133 133 -316 144h-520v-992z" />
<glyph unicode="Q" horiz-adv-x="2244" d="M125 936q0 412 293 704.5t704 292.5q413 0 705 -292.5t292 -704.5q0 -413 -292 -705q-112 -112 -242 -181q-40 -21 -82 -38q15 -11 30 -19q52 -29 120 -29q44 0 94 12q126 29 194 133q12 18 21 37l115 -87l-12 -18q-98 -152 -283 -195q-59 -14 -116 -14q-101 0 -195 43 q-19 9 -38 19q-58 32 -94 67q-104 -22 -217 -22q-204 0 -378 72q-88 36 -168 89q-83 56 -158 131q-293 292 -293 705zM264 936q0 -355 252 -606q60 -60 126 -106q89 92 226 123q59 14 116 14q101 0 195 -43q19 -9 38 -19q98 -54 164 -156q8 -12 16 -23q19 7 39 14 q162 63 295 196q251 251 251 606q0 353 -251.5 605.5t-608.5 252.5q-354 0 -606 -252.5t-252 -605.5zM769 152q6 -3 13 -6q156 -68 340 -68q62 0 120 8q5 1 10 1q-9 13 -17 24q-31 40 -93 74q-76 41 -157 41q-40 0 -82 -10q-79 -18 -134 -64z" />
<glyph unicode="R" horiz-adv-x="1425" d="M100 0v1864h657v-2q238 -12 409 -183q184 -185 184 -445q0 -261 -184 -445q-101 -101 -226 -147l370 -642h-157l-352 610q-22 -3 -44 -4v-5h-521v-601h-136zM236 736h494v3q200 3 342 145q145 145 145 350q0 204 -145 350q-133 133 -316 144h-520v-992z" />
<glyph unicode="S" horiz-adv-x="1029" d="M0 76l103 106q80 -78 182 -78h10q113 5 190 86t78 192q-1 39 -27 165q-216 816 -216 930q1 170 121.5 295.5t290.5 132.5h18q159 0 279 -116l-104 -106q-81 78 -182 78h-10q-113 -5 -190.5 -86t-77.5 -192q0 -41 28 -173l187 -754q27 -127 28 -168q-2 -170 -122.5 -295.5 t-290.5 -132.5h-18q-158 0 -277 116z" />
<glyph unicode="T" horiz-adv-x="768" d="M50 1728v136h668v-136h-266v-1728h-136v1728h-266z" />
<glyph unicode="U" horiz-adv-x="1383" d="M100 531v1333h135v-1306q6 -200 128 -342q145 -127 290 -127h80q144 0 290 127q113 133 124 316v1332h136v-1333h-2q-12 -238 -163 -409q-185 -166 -382 -166h-86q-198 0 -382 166q-151 171 -168 409z" />
<glyph unicode="V" horiz-adv-x="1341" d="M10 1864h149l511 -1460l512 1460h149l-661 -1884z" />
<glyph unicode="W" horiz-adv-x="2375" d="M10 1864h151l728 -1562l225 481l-505 1081h151l728 -1562l727 1562h150l-877 -1884l-299 642l-299 -642z" />
<glyph unicode="X" horiz-adv-x="1609" d="M0 1864h157l648 -1120l647 1120h157l-726 -1257l351 -607h-157l-272 470l-272 -470h-157l350 607z" />
<glyph unicode="Y" horiz-adv-x="1609" d="M0 1864h157l648 -1120l647 1120h157l-736 -1257l-1 -607h-135v607z" />
<glyph unicode="Z" horiz-adv-x="1306" d="M75 1v4l927 1723h-927v136h1155l-929 -1727h930v-136h-1156z" />
<glyph unicode="[" horiz-adv-x="528" d="M75 -780v2644h378v-136h-242v-2372h242v-136h-378z" />
<glyph unicode="\" horiz-adv-x="1022" d="M0 1874l118 55l904 -1939l-118 -55z" />
<glyph unicode="]" horiz-adv-x="528" d="M75 -644h242v2372h-242v136h378v-2644h-378v136z" />
<glyph unicode="^" horiz-adv-x="881" d="M75 1543l367 322l364 -322h-189l-175 148l-178 -148h-189z" />
<glyph unicode="_" horiz-adv-x="1030" d="M-50 -75h1130v-130h-1130v130z" />
<glyph unicode="`" horiz-adv-x="520" d="M75 1463l93 93l277 -275l-94 -94z" />
<glyph unicode="a" horiz-adv-x="1305" d="M80 544q0 225 159.5 384.5t384.5 159.5t385 -159l20 -22v165h136v-1072h-136v181l-20 -22q-160 -159 -385 -159t-384.5 159.5t-159.5 384.5zM209 544q0 -172 122 -293.5t293 -121.5q173 0 294 121q85 85 111 194v199q-26 109 -111 194q-121 122 -294 122 q-171 0 -293 -121.5t-122 -293.5z" />
<glyph unicode="b" horiz-adv-x="1327" d="M125 0v1864h136v-957l20 22q160 159 385 159t384.5 -159.5t159.5 -384.5t-159.5 -384.5t-384.5 -159.5t-385 159l-20 22v-181h-136zM261 444q26 -109 111 -194q121 -121 294 -121q171 0 293 121.5t122 293.5t-122 293.5t-293 121.5q-173 0 -294 -122q-85 -85 -111 -194 v-199z" />
<glyph unicode="c" horiz-adv-x="1299" d="M105 541q0 229 163.5 392.5t394.5 163.5q109 0 207 -38l-96 -113q-55 14 -111 14q-171 0 -294 -123t-123 -296q0 -174 123 -296.5t294 -122.5q172 0 295 123q105 104 121 251h140q-16 -202 -162 -348q-162 -163 -394 -163q-231 0 -394.5 163t-163.5 393z" />
<glyph unicode="d" horiz-adv-x="1335" d="M120 544q0 225 159.5 384.5t384.5 159.5t385 -159l20 -22v957h136v-1864h-136v181l-20 -22q-160 -159 -385 -159t-384.5 159.5t-159.5 384.5zM249 544q0 -172 122 -293.5t293 -121.5q173 0 294 121q85 85 111 194v199q-26 109 -111 194q-121 122 -294 122 q-171 0 -293 -121.5t-122 -293.5z" />
<glyph unicode="e" horiz-adv-x="1292" d="M105 526q0 227 161.5 388.5t388.5 161.5q228 0 389 -161q134 -135 156 -314h-959q-6 -37 -6 -75q0 -174 123.5 -297t296.5 -123q174 0 298 123q101 101 119 236h130q-19 -189 -158 -328q-161 -161 -389 -161q-227 0 -388.5 161t-161.5 389zM291 736h729q-27 46 -67 87 q-124 123 -298 123q-173 0 -296 -123q-41 -41 -68 -87z" />
<glyph unicode="f" horiz-adv-x="580" d="M100 601v135h86v840q0 149 112 225q80 64 179 64q18 0 37 -2q49 -5 91 -24q61 -28 93 -73l-108 -74q-37 37 -91 43q-10 1 -19 1q-52 0 -95 -34q-61 -50 -61 -133v-833h180v-135h-180v-601h-138v601h-86z" />
<glyph unicode="g" horiz-adv-x="1262" d="M130 542q0 213 150.5 363.5t361.5 150.5q214 0 363 -151q14 -13 23 -25l39 52l95 -90l-55 -79q48 -100 48 -221q0 -212 -150 -362q-132 -132 -310 -148l-29 -45h10q63 0 128 -23q145 -51 212 -190q37 -79 37 -159q0 -62 -23 -126q-51 -145 -191 -211q-79 -37 -160 -37 q-62 0 -125 22q-69 25 -139 86l111 64q36 -25 68 -37q41 -15 83 -15q54 0 108 26q95 45 129 143q16 44 16 87q0 54 -25 106q-45 94 -141 128q-43 15 -85 15q-55 0 -108 -25l-101 83l73 114q-147 26 -262 142q-151 150 -151 362zM256 542q0 -159 113.5 -272.5t272.5 -113.5 q161 0 274.5 113.5t113.5 272.5t-113.5 273t-274.5 114q-159 0 -272.5 -114t-113.5 -273z" />
<glyph unicode="h" horiz-adv-x="1326" d="M125 0v1864h136v-959q11 13 23 25q154 158 379 158q91 0 172 -26q116 -39 211 -132q83 -83 121 -184q34 -81 34 -187v-559h-136v578q-15 144 -120 249q-117 116 -282 116q-164 0 -280 -116q-114 -114 -121 -271v-556h-137z" />
<glyph unicode="i" horiz-adv-x="438" d="M105 962q0 30 15.5 57.5t42.5 42t56 14.5t56 -14.5t42.5 -42t15.5 -57.5t-15 -57t-42 -42t-57 -15t-57 15t-42 42t-15 57zM151 0v736h136v-736h-136z" />
<glyph unicode="j" horiz-adv-x="430" d="M-370 -644l100 86q66 -61 149 -69q11 -1 22 -1q86 0 156 57q78 64 87 184v1123h138v-1141q-17 -172 -137 -267q-107 -85 -241 -85q-18 0 -37 2q-65 5 -120 30q-60 25 -117 81zM102 962q0 30 15.5 57.5t42.5 42t56 14.5t56 -14.5t42.5 -42t15.5 -57.5t-15 -57t-42 -42 t-57 -15t-57 15t-42 42t-15 57z" />
<glyph unicode="k" horiz-adv-x="1154" d="M105 0v1864h136v-1591l464 803h157l-253 -438q149 -33 264 -148q161 -162 161 -389v-101h-129v101q0 173 -123 297q-103 103 -242 120l-299 -518h-136z" />
<glyph unicode="l" horiz-adv-x="506" d="M150 289v1575h138v-1528q0 -123 61 -163q38 -30 82 -33v-140q-93 3 -169 64q-108 76 -112 225z" />
<glyph unicode="m" horiz-adv-x="1866" d="M130 0v1076h136v-111q126 123 302 123q179 0 306 -127q36 -36 61 -76q26 40 62 76q127 127 306 127t306 -127q120 -120 127 -286v-675h-136v675q-6 111 -86 191q-87 86 -211 86q-122 0 -209.5 -86.5t-87.5 -211.5v-654h-141v675q-6 111 -86 191q-87 86 -211 86 q-122 0 -209.5 -86.5t-87.5 -211.5v-654h-141z" />
<glyph unicode="n" horiz-adv-x="1281" d="M115 0v1076h136v-171q177 183 402 183q91 0 172 -26q116 -39 211 -132q83 -83 121 -184q34 -81 34 -187v-559h-136v578q-15 144 -120 249q-117 116 -282 116q-164 0 -280 -116q-114 -114 -121 -271v-556h-137z" />
<glyph unicode="o" horiz-adv-x="1293" d="M80 518q0 234 166.5 400.5t400.5 166.5q235 0 400.5 -166.5t165.5 -400.5q0 -235 -165.5 -401t-400.5 -166q-234 0 -400.5 166t-166.5 401zM214 518q0 -179 127 -306t306 -127q180 0 306.5 127t126.5 306q0 178 -126.5 305.5t-306.5 127.5q-179 0 -306 -127.5 t-127 -305.5z" />
<glyph unicode="p" horiz-adv-x="1282" d="M110 -792v1864h136v-181l20 22q160 159 385 159t384.5 -159.5t159.5 -384.5t-159.5 -384.5t-384.5 -159.5t-385 159l-20 22v-957h-136zM246 429q26 -109 111 -194q121 -122 294 -122q171 0 293 121.5t122 293.5t-122 293.5t-293 121.5q-173 0 -294 -121 q-85 -85 -111 -194v-199z" />
<glyph unicode="q" horiz-adv-x="1260" d="M75 528q0 225 159.5 384.5t384.5 159.5t385 -159l20 -22v181h136v-1864h-136v957l-20 -22q-160 -159 -385 -159t-384.5 159.5t-159.5 384.5zM204 528q0 -172 122 -293.5t293 -121.5q173 0 294 122q85 85 111 194v199q-26 109 -111 194q-121 121 -294 121 q-171 0 -293 -121.5t-122 -293.5z" />
<glyph unicode="r" horiz-adv-x="688" d="M150 0v1076h136v-173q10 11 21 22q150 150 363 150h20v-127q-10 1 -20 1q-159 0 -273 -113q-94 -94 -111 -219l1 -617h-137z" />
<glyph unicode="s" horiz-adv-x="631" d="M0 67l100 104q57 -55 93 -55q46 2 76.5 34t31.5 80q0 18 -12 79q-106 418 -106 484q2 97 74 173t188 82q98 0 186 -85l-99 -103q-58 55 -99 55q-40 -2 -70.5 -34.5t-31.5 -84.5q0 -20 12 -79l92 -388q13 -68 13 -91q-2 -98 -74.5 -174t-186.5 -82q-99 0 -187 85z" />
<glyph unicode="t" horiz-adv-x="673" d="M90 601v135h86v1128h138v-1128h180v-135h-180v-305q0 -83 46 -123q43 -34 95 -34q9 0 19 1q54 6 91 43l108 -84q-32 -45 -93 -73q-42 -19 -91 -24q-19 -2 -37 -2q-99 0 -179 64q-95 76 -97 225v312h-86z" />
<glyph unicode="u" horiz-adv-x="1126" d="M130 406v670h136v-649q0 -125 87.5 -211.5t209.5 -86.5q124 0 211 87q80 79 86 190v670h136v-670q-7 -166 -127 -286q-127 -127 -306 -127t-306 127q-120 120 -127 286z" />
<glyph unicode="v" horiz-adv-x="1267" d="M5 1076h158l471 -816l471 816h157l-628 -1089z" />
<glyph unicode="w" horiz-adv-x="1791" d="M5 1076h158l471 -816l183 317l-288 499h158l471 -816l471 816h157l-628 -1089l-262 454l-262 -454z" />
<glyph unicode="x" horiz-adv-x="965" d="M0 1072h157l325 -563l325 563h158l-404 -699l215 -373h-157l-137 237l-137 -237h-157l216 373z" />
<glyph unicode="y" horiz-adv-x="1286" d="M100 517v559h136v-578q15 -144 120 -249q117 -116 282 -116q164 0 280 116q114 114 121 271v556h137l-1 -1303q-3 -224 -157.5 -382.5t-379.5 -158.5q-91 0 -172 26q-116 39 -211 132q-83 83 -121 184q-28 66 -28 183v16h137q8 -175 113 -280q117 -116 282 -116 q164 0 280 116q114 114 121 271v406q-10 -12 -21 -23q-155 -159 -380 -159q-91 0 -172 26q-116 39 -211 132q-83 83 -121 184q-34 81 -34 187z" />
<glyph unicode="z" horiz-adv-x="950" d="M75 0l550 944h-547l-1 132h798l-550 -944h547l1 -132h-798z" />
<glyph unicode="{" horiz-adv-x="769" d="M75 465v150q139 19 189.5 84t52.5 135v651q0 147 90.5 253t271.5 126h15v-140q-139 -19 -189.5 -84t-51.5 -135v-671q0 -127 -91 -233q-30 -36 -70 -62q40 -25 70 -60q91 -106 91 -228v-672q1 -70 51.5 -135t189.5 -84v-140h-15q-181 20 -271.5 126t-90.5 253v652 q-2 65 -52.5 130t-189.5 84z" />
<glyph unicode="|" horiz-adv-x="280" d="M75 -750v2650h130v-2650h-130z" />
<glyph unicode="}" horiz-adv-x="769" d="M75 -640q139 19 189.5 84t51.5 135v672q0 122 91 228q30 35 70 60q-40 26 -70 62q-91 106 -91 233v671q-1 70 -51.5 135t-189.5 84v140h15q181 -20 271.5 -126t90.5 -253v-651q2 -70 52.5 -135t189.5 -84v-150q-139 -19 -189.5 -84t-52.5 -130v-652q0 -147 -90.5 -253 t-271.5 -126h-15v140z" />
<glyph unicode="~" horiz-adv-x="1168" d="M75 702q9 39 33 75q52 77 142 94q14 3 28 4q9 1 19 1q81 0 310.5 -47.5t276.5 -47.5q6 0 10 1q40 8 64 43q16 24 17 51l118 -44q-9 -39 -33 -75q-52 -77 -142 -94q-14 -3 -28 -4q-9 -1 -19 -1q-81 0 -310.5 47.5t-276.5 47.5q-6 0 -10 -1q-40 -8 -64 -43q-16 -24 -17 -51 z" />
<glyph unicode="&#xa1;" horiz-adv-x="378" d="M75 958q0 30 15 57t42 42t57 15t57 -15t42 -42t15 -57t-15.5 -57.5t-42.5 -42t-56 -14.5t-56 14.5t-42.5 42t-15.5 57.5zM121 752h136v-1544h-136v1544z" />
<glyph unicode="&#xa2;" horiz-adv-x="897" d="M75 1317q0 153 110 263q86 86 199 104v190h130v-191q45 -9 94 -28l-83 -97q-6 1 -11 3q-36 8 -66 8q-34 0 -64 -8q-62 -16 -112 -66q-74 -74 -74 -178q0 -105 74 -178q50 -50 112 -66q30 -8 64 -8q35 0 66 8q63 17 112 66q63 62 74 165h122q-12 -152 -110 -250 q-84 -85 -198 -104v-191h-130v191q-113 18 -199 104q-110 109 -110 263z" />
<glyph unicode="&#xa3;" horiz-adv-x="1307" d="M75 547v136h229q-27 100 -67 238q-124 345 -127 456v6q0 179 129 311q131 133 320 134l32 1h3q188 0 320 -131q25 -24 45 -50l-129 -78q-11 14 -24 26q-45 46 -98 70l-2 -3q-47 29 -130 29h-24q-56 -4 -106 -28q-53 -25 -98 -71q-88 -90 -88 -215q1 -54 17 -98l180 -597 h418v-136h-377q15 -55 16 -113v-4q0 -125 -60 -226l435 -128q23 -8 50 -8q63 0 108.5 45.5t50.5 127.5h134q0 -140 -86 -226t-207 -86q-71 2 -280 75q-152 42 -263 42q-76 0 -133 -20q-67 -33 -145 -42l-11 56l-16 85q65 6 114.5 37t70.5 52q88 87 88 216v3q0 20 -24 114 h-265z" />
<glyph unicode="&#xa4;" horiz-adv-x="1019" d="M75 412v12l103 103q-71 100 -71 230t72 230l-101 101v12l88 87h11l101 -101q101 73 232 73q68 0 128 -19q54 -18 102 -52l102 102h11l88 -87v-12l-102 -101q29 -40 46 -85q27 -68 27 -148q0 -131 -72 -232l104 -104v-11l-88 -88h-11l-104 104q-101 -72 -231 -72 q-132 0 -233 74l-103 -103h-11zM233 758q0 -78 36 -140q18 -30 45 -57q25 -25 54 -42q63 -38 141 -38t140 37q30 17 56 43t44 55q37 63 37 142q0 77 -39 140q-17 28 -42 53q-27 27 -58 45q-61 36 -138 36t-139 -37q-30 -18 -56 -44t-43 -55q-38 -62 -38 -138z" />
<glyph unicode="&#xa5;" horiz-adv-x="1479" d="M75 1874h159l506 -1094l505 1094h159l-542 -1157h427v-140h-479v-180h479v-140h-479v-267h-140v267h-481v140h481v180h-481v140h429z" />
<glyph unicode="&#xa6;" horiz-adv-x="280" d="M75 439h130v-1139h-130v1139zM75 761v1139h130v-1139h-130z" />
<glyph unicode="&#xa7;" horiz-adv-x="1350" d="M75 -28l92 92h4l52 -24q45 -24 120 -24q184 0 248 204l4 52v20q0 52 -176 568q-132 365 -132 448v28q0 260 256 384q96 27 96 40q73 152 244 216q64 24 116 24q179 0 276 -100v-8l-92 -92h-4l-52 24q-45 24 -120 24q-184 0 -248 -204l-4 -52v-20q0 -52 176 -568 q132 -365 132 -448v-28q0 -260 -256 -384q-96 -27 -96 -40q-73 -152 -244 -216q-64 -24 -116 -24q-179 0 -276 100v8zM439 1324q0 -52 176 -568q132 -365 132 -448v-28q164 75 164 240v20q0 52 -176 568q-132 365 -132 448v28q-164 -75 -164 -240v-20z" />
<glyph unicode="&#xa8;" horiz-adv-x="778" d="M75 1298q0 30 15.5 57.5t42.5 42t56 14.5t56 -14.5t42.5 -42t15.5 -57.5t-15 -57t-42 -42t-57 -15t-57 15t-42 42t-15 57zM475 1298q0 30 15.5 57.5t42.5 42t56 14.5t56 -14.5t42.5 -42t15.5 -57.5t-15 -57t-42 -42t-57 -15t-57 15t-42 42t-15 57z" />
<glyph unicode="&#xa9;" horiz-adv-x="1473" d="M75 650q0 273 194.5 467.5t467.5 194.5q274 0 467.5 -194.5t193.5 -467.5q0 -274 -193.5 -468t-467.5 -194q-273 0 -467.5 194t-194.5 468zM200 650q0 -222 157.5 -379t378.5 -157q223 0 380 157t157 379q0 221 -157 378.5t-380 157.5q-221 0 -378.5 -157.5 t-157.5 -378.5zM363 650q0 153 109.5 262.5t263.5 109.5q73 0 160 -34l-83 -97q-43 11 -77 11q-102 0 -176 -74t-74 -178q0 -105 74 -178.5t176 -73.5q104 0 178 74q63 62 74 165h122q-12 -152 -110 -250q-108 -109 -264 -109q-154 0 -263.5 109t-109.5 263z" />
<glyph unicode="&#xaa;" horiz-adv-x="899" d="M66 1532q0 142 110.5 244t269.5 102q158 0 237 -69v59h140v-683h-140v70q-79 -70 -237 -70q-159 0 -269.5 102.5t-110.5 244.5zM202 1532q0 -97 72 -163t172 -66t173 67q49 45 64 103v116q-15 59 -66 106q-71 66 -171 66t-172 -66.5t-72 -162.5z" />
<glyph unicode="&#xab;" horiz-adv-x="755" d="M75 1v189l148 175l-148 178v189l322 -367zM358 1v189l148 175l-148 178v189l322 -367z" />
<glyph unicode="&#xac;" d="M99 797v130h871v2h130v-530h-130v398h-871z" />
<glyph unicode="&#xad;" horiz-adv-x="825" d="M75 606v130h675v-130h-675z" />
<glyph unicode="&#xae;" horiz-adv-x="1473" d="M75 650q0 273 194.5 467.5t467.5 194.5q274 0 467.5 -194.5t193.5 -467.5q0 -274 -193.5 -468t-467.5 -194q-273 0 -467.5 194t-194.5 468zM200 650q0 -222 157.5 -379t378.5 -157q108 0 201 37l-148 319q-24 -4 -49 -4h-142v-175h-112v733h254q117 0 200 -81t83 -198 t-83 -198q-24 -23 -50 -40l142 -305q44 29 84 69q157 157 157 379q0 221 -157 378.5t-380 157.5q-221 0 -378.5 -157.5t-157.5 -378.5zM598 580h152q67 0 116 48t49 117q0 70 -49.5 118t-118.5 48h-149v-331z" />
<glyph unicode="&#xaf;" horiz-adv-x="606" d="M75 1260v130h456v-130h-456z" />
<glyph unicode="&#xb0;" horiz-adv-x="596" d="M75 1323q0 92 65.5 157.5t157.5 65.5t157.5 -65.5t65.5 -157.5q0 -93 -65.5 -158t-157.5 -65q-37 0 -70 10q-49 16 -88 55q-32 32 -48 71q-17 40 -17 87zM182 1323q0 -49 34 -83t82 -34q49 0 83 34t34 83q0 48 -34 82t-83 34q-48 0 -82 -34t-34 -82z" />
<glyph unicode="&#xb1;" d="M122 0v130h955v-130h-955zM122 669v130h413v413h130v-413h412v-130h-412v-412h-130v412h-413z" />
<glyph unicode="&#xb2;" horiz-adv-x="899" d="M155 558l338 541q65 114 65 137v14q0 51 -40 88q-46 42 -108 42t-109 -43q-8 -7 -34 -41l-95 88q21 23 35 36q83 76 203 76q49 0 92 -13q63 -19 113 -64q44 -41 64 -90q3 -7 6 -15q13 -37 13 -80q-7 -83 -61 -160l-246 -394h354v-122h-590z" />
<glyph unicode="&#xb3;" horiz-adv-x="899" d="M90 722l101 93q31 -58 54 -81l7 -7q74 -68 174 -68q101 0 173.5 66.5t72.5 163.5q0 96 -73 165q-53 48 -122 61q-24 4 -51 4q-21 0 -90 -9l72 116l93 148h-170v122h406l-175 -279q64 -17 136 -83q110 -102 110 -245t-111 -245.5t-271 -102.5q-154 0 -265 98l-3 3 q-37 34 -68 80z" />
<glyph unicode="&#xb4;" horiz-adv-x="520" d="M75 1294l277 275l93 -93l-276 -276z" />
<glyph unicode="&#xb5;" horiz-adv-x="1226" d="M75 -792v1864h137v-556q7 -157 121 -271q116 -116 280 -116q165 0 282 116q105 105 120 249v578h136v-1072h-136v162q-9 -10 -19 -20q-95 -93 -211 -132q-81 -26 -172 -26q-225 0 -379 158q-12 12 -23 25v-959h-136z" />
<glyph unicode="&#xb6;" horiz-adv-x="1323" d="M75 1234q0 260 184 445q171 171 409 183v2h580v-2656h-126v2520h-177v-2520h-136v1393h-141v5q-238 12 -409 183q-184 184 -184 445z" />
<glyph unicode="&#xb7;" horiz-adv-x="378" d="M75 735q0 30 15.5 57.5t42.5 42t56 14.5t56 -14.5t42.5 -42t15.5 -57.5t-15 -57t-42 -42t-57 -15t-57 15t-42 42t-15 57z" />
<glyph unicode="&#xb8;" horiz-adv-x="500" d="M75 -314l87 66q44 -33 75 -33h2q40 2 53 34q6 15 6 28q0 15 -7 27q-15 23 -60 28h-9q-70 0 -79 43l107 160l110 -34l-54 -92q95 -26 113 -98q6 -26 6 -49q0 -44 -22 -83q-38 -63 -147 -65h-6q-106 0 -175 68z" />
<glyph unicode="&#xb9;" horiz-adv-x="899" d="M325 1222l249 396v-1038h-140v642h-109z" />
<glyph unicode="&#xba;" horiz-adv-x="899" d="M56 1505q0 147 115.5 253.5t279.5 106.5t278.5 -106.5t114.5 -253.5q0 -148 -114.5 -254t-278.5 -106t-279.5 106t-115.5 254zM195 1505q0 -101 75.5 -170.5t180.5 -69.5t180 69.5t75 170.5q0 100 -75 170t-180 70t-180.5 -70t-75.5 -170z" />
<glyph unicode="&#xbb;" horiz-adv-x="755" d="M75 365l322 367v-189l-148 -178l148 -175v-189zM358 365l322 367v-189l-148 -178l148 -175v-189z" />
<glyph unicode="&#xbc;" horiz-adv-x="1951" d="M225 1222l249 396v-1038h-140v642h-109zM349 -8l1205 1893l148 -31l-1206 -1892zM1085 192l529 846v-724h103v-122h-103v-192h-141v192h-388zM1321 314h152v244z" />
<glyph unicode="&#xbd;" horiz-adv-x="1951" d="M225 1222l249 396v-1038h-140v642h-109zM349 -8l1205 1893l148 -31l-1206 -1892zM1107 0l338 540q65 115 65 138v13q0 52 -40 89q-46 41 -108 41t-109 -43q-8 -7 -34 -40l-95 87q21 24 35 36q83 77 203 77q49 0 92 -13q63 -19 113 -65q44 -40 64 -89q3 -7 6 -15 q13 -38 13 -80q-7 -83 -61 -161l-246 -393h354v-122h-590z" />
<glyph unicode="&#xbe;" horiz-adv-x="1951" d="M-10 722l101 93q31 -58 54 -81l7 -7q74 -68 174 -68q101 0 173.5 66.5t72.5 163.5q0 96 -73 165q-53 48 -122 61q-24 4 -51 4q-21 0 -90 -9l72 116l93 148h-170v122h406l-175 -279q64 -17 136 -83q110 -102 110 -245t-111 -245.5t-271 -102.5q-154 0 -265 98l-3 3 q-37 34 -68 80zM349 -8l1205 1893l148 -31l-1206 -1892zM1085 192l529 846v-724h103v-122h-103v-192h-141v192h-388zM1321 314h152v244z" />
<glyph unicode="&#xbf;" horiz-adv-x="1114" d="M75 -307q0 106 49 206l345 569q29 57 29 107q0 54 -36 98l98 99q81 -66 81 -175q0 -107 -78 -252l-304 -512q-33 -68 -33 -140q0 -54 18 -110q45 -129 168 -189q70 -34 143 -34q54 0 108 19q130 44 190 165q34 71 34 145q0 28 -5 57l144 52q13 -55 13 -107 q0 -108 -52 -212q-41 -86 -105 -144q-70 -66 -168 -101q-81 -26 -159 -26q-30 0 -61 4q-75 11 -148 46q-178 87 -243 275q-28 82 -28 160zM425 956q0 30 15.5 58t42.5 43t57 15q31 0 58.5 -15t43 -43t15.5 -58q0 -31 -16 -58.5t-43 -42t-58 -14.5q-29 0 -56 14.5t-43 42 t-16 58.5z" />
<glyph unicode="&#xc0;" horiz-adv-x="1521" d="M100 0l660 1884l661 -1884h-149l-211 601h-602l-210 -601h-149zM507 736h507l-254 724zM514 2255l93 93l277 -275l-94 -94z" />
<glyph unicode="&#xc1;" horiz-adv-x="1521" d="M100 0l660 1884l661 -1884h-149l-211 601h-602l-210 -601h-149zM507 736h507l-254 724zM637 2086l277 275l93 -93l-276 -276z" />
<glyph unicode="&#xc2;" horiz-adv-x="1521" d="M100 0l660 1884l661 -1884h-149l-211 601h-602l-210 -601h-149zM395 1992l367 322l364 -322h-189l-175 148l-178 -148h-189zM507 736h507l-254 724z" />
<glyph unicode="&#xc3;" horiz-adv-x="1361" d="M20 0l660 1884l661 -1884h-149l-211 601h-602l-210 -601h-149zM362 2039q9 28 27 55q51 76 142 95q14 2 28 3q8 1 17 1q64 0 125 -41q60 -41 92 -41q4 0 8 1q40 8 64 43q16 24 17 51l118 -44q-9 -39 -33 -75q-52 -77 -142 -94q-14 -3 -28 -4q-9 -1 -17 -1q-66 0 -125 41 q-60 41 -92 41q-4 0 -8 -1q-41 -8 -64 -42q-10 -16 -15 -32zM427 736h507l-254 724z" />
<glyph unicode="&#xc4;" horiz-adv-x="1521" d="M100 0l660 1884l661 -1884h-149l-211 601h-602l-210 -601h-149zM447 2090q0 30 15.5 57.5t42.5 42t56 14.5t56 -14.5t42.5 -42t15.5 -57.5t-15 -57t-42 -42t-57 -15t-57 15t-42 42t-15 57zM507 736h507l-254 724zM847 2090q0 30 15.5 57.5t42.5 42t56 14.5t56 -14.5 t42.5 -42t15.5 -57.5t-15 -57t-42 -42t-57 -15t-57 15t-42 42t-15 57z" />
<glyph unicode="&#xc5;" horiz-adv-x="1361" d="M20 0l656 1872q-34 1 -65 10q-49 16 -88 55q-32 32 -48 71q-17 40 -17 87q0 92 65.5 157.5t157.5 65.5t157.5 -65.5t65.5 -157.5q0 -93 -65 -158q-65 -64 -155 -65l657 -1872h-149l-211 601h-602l-210 -601h-149zM427 736h507l-254 724zM565 2095q0 -49 34 -83t81 -34 q49 0 83 34t34 83q0 48 -34 82t-83 34q-47 0 -81 -34t-34 -82z" />
<glyph unicode="&#xc6;" horiz-adv-x="1544" d="M75 0l706 1864l2 -8v8h686v-136h-550v-992h275v-135h-275v-465h550v-136h-686v601h-348l-211 -601h-149zM483 736h300v780l-14 40z" />
<glyph unicode="&#xc7;" horiz-adv-x="2018" d="M100 927q0 62 8 127q48 386 358 627q257 200 571 200q63 0 128 -8q183 -23 342 -109l-111 -108q-119 56 -250 72q-55 7 -108 7q-265 0 -482 -169q-262 -204 -302 -531q-7 -54 -7 -107q0 -264 170 -481q203 -261 531 -303q55 -7 109 -7q265 0 482 169q216 169 283 430h151 q-74 -333 -344 -545q-222 -174 -488 -197l-48 -81q95 -26 113 -98q6 -26 6 -49q0 -44 -22 -83q-38 -63 -147 -65h-6q-106 0 -175 68l87 66q44 -33 75 -33h2q40 2 53 34q6 15 6 28q0 15 -7 27q-15 23 -60 28h-9q-70 0 -79 43l76 113q-37 2 -75 7q-389 49 -630 358 q-201 259 -201 570z" />
<glyph unicode="&#xc8;" horiz-adv-x="1174" d="M100 0v1864h1024v-136h-888v-991h275v-136h-275v-465h888v-136h-1024zM365 2255l93 93l277 -275l-94 -94z" />
<glyph unicode="&#xc9;" horiz-adv-x="1174" d="M100 0v1864h1024v-136h-888v-991h275v-136h-275v-465h888v-136h-1024zM489 2086l277 275l93 -93l-276 -276z" />
<glyph unicode="&#xca;" horiz-adv-x="1174" d="M100 0v1864h1024v-136h-888v-991h275v-136h-275v-465h888v-136h-1024zM247 1992l367 322l364 -322h-189l-175 148l-178 -148h-189z" />
<glyph unicode="&#xcb;" horiz-adv-x="1174" d="M100 0v1864h1024v-136h-888v-991h275v-136h-275v-465h888v-136h-1024zM298 2090q0 30 15.5 57.5t42.5 42t56 14.5t56 -14.5t42.5 -42t15.5 -57.5t-15 -57t-42 -42t-57 -15t-57 15t-42 42t-15 57zM698 2090q0 30 15.5 57.5t42.5 42t56 14.5t56 -14.5t42.5 -42t15.5 -57.5 t-15 -57t-42 -42t-57 -15t-57 15t-42 42t-15 57z" />
<glyph unicode="&#xcc;" horiz-adv-x="386" d="M-54 2255l93 93l277 -275l-94 -94zM125 0v1864h136v-1864h-136z" />
<glyph unicode="&#xcd;" horiz-adv-x="386" d="M70 2086l277 275l93 -93l-276 -276zM125 0v1864h136v-1864h-136z" />
<glyph unicode="&#xce;" horiz-adv-x="386" d="M-92 2000l297 322l294 -322h-189l-105 118l-108 -118h-189zM125 0v1864h136v-1864h-136z" />
<glyph unicode="&#xcf;" horiz-adv-x="386" d="M-71 2098q0 30 15.5 57.5t42.5 42t56 14.5t56 -14.5t42.5 -42t15.5 -57.5t-15 -57t-42 -42t-57 -15t-57 15t-42 42t-15 57zM125 0v1864h136v-1864h-136zM229 2098q0 30 15.5 57.5t42.5 42t56 14.5t56 -14.5t42.5 -42t15.5 -57.5t-15 -57t-42 -42t-57 -15t-57 15t-42 42 t-15 57z" />
<glyph unicode="&#xd0;" horiz-adv-x="1408" d="M75 896v132h183v889q61 7 120 7h16q311 -5 566 -204q316 -245 365 -638q8 -66 8 -129q0 -317 -205 -580q-245 -315 -642 -365q-46 -6 -92 -7q-19 -1 -38 -1q-50 0 -98 5v891h-183zM394 140q38 1 76 6q338 43 548 312q175 224 175 496q0 54 -7 110q-42 337 -312 547 q-217 169 -480 174v-757h597v-132h-597v-756z" />
<glyph unicode="&#xd1;" horiz-adv-x="1284" d="M130 0v1853h53l835 -1447v1458h136v-1864h-58l-830 1437v-1437h-136zM323 2039q9 28 27 55q51 76 142 95q14 2 28 3q8 1 17 1q64 0 125 -41q60 -41 92 -41q4 0 8 1q40 8 64 43q16 24 17 51l118 -44q-9 -39 -33 -75q-52 -77 -142 -94q-14 -3 -28 -4q-9 -1 -17 -1 q-66 0 -125 41q-60 41 -92 41q-4 0 -8 -1q-41 -8 -64 -42q-10 -16 -15 -32z" />
<glyph unicode="&#xd2;" horiz-adv-x="2194" d="M100 936q0 412 293 704.5t704 292.5q413 0 705 -292.5t292 -704.5q0 -413 -292 -705t-705 -292q-411 0 -704 292t-293 705zM248 936q0 -351 249.5 -600t599.5 -249q353 0 602 249t249 600q0 349 -249 599t-602 250q-350 0 -599.5 -250t-249.5 -599zM850 2255l93 93 l277 -275l-94 -94z" />
<glyph unicode="&#xd3;" horiz-adv-x="2194" d="M100 936q0 412 293 704.5t704 292.5q413 0 705 -292.5t292 -704.5q0 -413 -292 -705t-705 -292q-411 0 -704 292t-293 705zM248 936q0 -351 249.5 -600t599.5 -249q353 0 602 249t249 600q0 349 -249 599t-602 250q-350 0 -599.5 -250t-249.5 -599zM974 2086l277 275 l93 -93l-276 -276z" />
<glyph unicode="&#xd4;" horiz-adv-x="2194" d="M100 936q0 412 293 704.5t704 292.5q413 0 705 -292.5t292 -704.5q0 -413 -292 -705t-705 -292q-411 0 -704 292t-293 705zM248 936q0 -351 249.5 -600t599.5 -249q353 0 602 249t249 600q0 349 -249 599t-602 250q-350 0 -599.5 -250t-249.5 -599zM732 1992l367 322 l364 -322h-189l-175 148l-178 -148h-189z" />
<glyph unicode="&#xd5;" horiz-adv-x="2194" d="M100 936q0 412 293 704.5t704 292.5q413 0 705 -292.5t292 -704.5q0 -413 -292 -705t-705 -292q-411 0 -704 292t-293 705zM248 936q0 -351 249.5 -600t599.5 -249q353 0 602 249t249 600q0 349 -249 599t-602 250q-350 0 -599.5 -250t-249.5 -599zM778 2039q9 28 27 55 q51 76 142 95q14 2 28 3q8 1 17 1q64 0 125 -41q60 -41 92 -41q4 0 8 1q40 8 64 43q16 24 17 51l118 -44q-9 -39 -33 -75q-52 -77 -142 -94q-14 -3 -28 -4q-9 -1 -17 -1q-66 0 -125 41q-60 41 -92 41q-4 0 -8 -1q-41 -8 -64 -42q-10 -16 -15 -32z" />
<glyph unicode="&#xd6;" horiz-adv-x="2194" d="M100 936q0 412 293 704.5t704 292.5q413 0 705 -292.5t292 -704.5q0 -413 -292 -705t-705 -292q-411 0 -704 292t-293 705zM248 936q0 -351 249.5 -600t599.5 -249q353 0 602 249t249 600q0 349 -249 599t-602 250q-350 0 -599.5 -250t-249.5 -599zM783 2090 q0 30 15.5 57.5t42.5 42t56 14.5t56 -14.5t42.5 -42t15.5 -57.5t-15 -57t-42 -42t-57 -15t-57 15t-42 42t-15 57zM1183 2090q0 30 15.5 57.5t42.5 42t56 14.5t56 -14.5t42.5 -42t15.5 -57.5t-15 -57t-42 -42t-57 -15t-57 15t-42 42t-15 57z" />
<glyph unicode="&#xd7;" d="M216 442l292 293l-292 292l92 91l292 -292l291 292l92 -92l-291 -291l291 -292l-92 -92l-291 292l-292 -292z" />
<glyph unicode="&#xd8;" horiz-adv-x="2144" d="M75 940q0 412 293 704.5t704 292.5q242 0 442 -100l107 185l114 -66l-108 -186q79 -54 150 -125q292 -293 292 -705q0 -413 -292 -705t-705 -292q-241 0 -441 100l-107 -185l-114 66l108 186q-79 54 -150 125q-293 292 -293 705zM213 940q0 -355 252 -606 q58 -59 122 -103l857 1485q-169 82 -373 82q-354 0 -606 -252.5t-252 -605.5zM700 164q169 -82 371 -82q357 0 608.5 251.5t251.5 606.5q0 353 -251 606q-59 58 -122 103z" />
<glyph unicode="&#xd9;" horiz-adv-x="1383" d="M100 531v1333h135v-1306q6 -200 128 -342q145 -127 290 -127h80q144 0 290 127q113 133 124 316v1332h136v-1333h-2q-12 -238 -163 -409q-185 -166 -382 -166h-86q-198 0 -382 166q-151 171 -168 409zM445 2255l93 93l277 -275l-94 -94z" />
<glyph unicode="&#xda;" horiz-adv-x="1383" d="M100 531v1333h135v-1306q6 -200 128 -342q145 -127 290 -127h80q144 0 290 127q113 133 124 316v1332h136v-1333h-2q-12 -238 -163 -409q-185 -166 -382 -166h-86q-198 0 -382 166q-151 171 -168 409zM568 2086l277 275l93 -93l-276 -276z" />
<glyph unicode="&#xdb;" horiz-adv-x="1383" d="M100 531v1333h135v-1306q6 -200 128 -342q145 -127 290 -127h80q144 0 290 127q113 133 124 316v1332h136v-1333h-2q-12 -238 -163 -409q-185 -166 -382 -166h-86q-198 0 -382 166q-151 171 -168 409zM326 1992l367 322l364 -322h-189l-175 148l-178 -148h-189z" />
<glyph unicode="&#xdc;" horiz-adv-x="1383" d="M100 531v1333h135v-1306q6 -200 128 -342q145 -127 290 -127h80q144 0 290 127q113 133 124 316v1332h136v-1333h-2q-12 -238 -163 -409q-185 -166 -382 -166h-86q-198 0 -382 166q-151 171 -168 409zM378 2090q0 30 15.5 57.5t42.5 42t56 14.5t56 -14.5t42.5 -42 t15.5 -57.5t-15 -57t-42 -42t-57 -15t-57 15t-42 42t-15 57zM778 2090q0 30 15.5 57.5t42.5 42t56 14.5t56 -14.5t42.5 -42t15.5 -57.5t-15 -57t-42 -42t-57 -15t-57 15t-42 42t-15 57z" />
<glyph unicode="&#xdd;" horiz-adv-x="1609" d="M0 1864h157l648 -1120l647 1120h157l-736 -1257l-1 -607h-135v607zM681 2086l277 275l93 -93l-276 -276z" />
<glyph unicode="&#xde;" horiz-adv-x="1402" d="M75 0v1864h136v-300h523v-2q238 -12 409 -183q184 -185 184 -445q0 -261 -184 -445q-171 -171 -409 -183v-5h-523v-301h-136zM211 436h496v3q200 3 342 145q145 145 145 350q0 204 -145 350q-133 133 -316 144h-522v-992z" />
<glyph unicode="&#xdf;" horiz-adv-x="1345" d="M120 0v1864h435v-1q152 -9 241.5 -105.5t89.5 -246.5q0 -160 -103 -267q171 -37 303 -169q184 -184 184 -445q0 -260 -184 -445q-171 -171 -409 -183v-2h-278v136h277q183 11 316 144q145 146 145 350q0 205 -145 350q-142 142 -342 145v3h-191v135h94q83 14 135 65 q70 69 70 179q-5 221 -248 221h-254v-1728h-136z" />
<glyph unicode="&#xe0;" horiz-adv-x="1305" d="M80 544q0 225 159.5 384.5t384.5 159.5t385 -159l20 -22v165h136v-1072h-136v181l-20 -22q-160 -159 -385 -159t-384.5 159.5t-159.5 384.5zM209 544q0 -172 122 -293.5t293 -121.5q173 0 294 121q85 85 111 194v199q-26 109 -111 194q-121 122 -294 122 q-171 0 -293 -121.5t-122 -293.5zM376 1463l93 93l277 -275l-94 -94z" />
<glyph unicode="&#xe1;" horiz-adv-x="1305" d="M80 544q0 225 159.5 384.5t384.5 159.5t385 -159l20 -22v165h136v-1072h-136v181l-20 -22q-160 -159 -385 -159t-384.5 159.5t-159.5 384.5zM209 544q0 -172 122 -293.5t293 -121.5q173 0 294 121q85 85 111 194v199q-26 109 -111 194q-121 122 -294 122 q-171 0 -293 -121.5t-122 -293.5zM499 1294l277 275l93 -93l-276 -276z" />
<glyph unicode="&#xe2;" horiz-adv-x="1305" d="M80 544q0 225 159.5 384.5t384.5 159.5t385 -159l20 -22v165h136v-1072h-136v181l-20 -22q-160 -159 -385 -159t-384.5 159.5t-159.5 384.5zM209 544q0 -172 122 -293.5t293 -121.5q173 0 294 121q85 85 111 194v199q-26 109 -111 194q-121 122 -294 122 q-171 0 -293 -121.5t-122 -293.5zM257 1200l367 322l364 -322h-189l-175 148l-178 -148h-189z" />
<glyph unicode="&#xe3;" horiz-adv-x="1305" d="M80 544q0 225 159.5 384.5t384.5 159.5t385 -159l20 -22v165h136v-1072h-136v181l-20 -22q-160 -159 -385 -159t-384.5 159.5t-159.5 384.5zM209 544q0 -172 122 -293.5t293 -121.5q173 0 294 121q85 85 111 194v199q-26 109 -111 194q-121 122 -294 122 q-171 0 -293 -121.5t-122 -293.5zM304 1247q9 28 27 55q51 76 142 95q14 2 28 3q8 1 17 1q64 0 125 -41q60 -41 92 -41q4 0 8 1q40 8 64 43q16 24 17 51l118 -44q-9 -39 -33 -75q-52 -77 -142 -94q-14 -3 -28 -4q-9 -1 -17 -1q-66 0 -125 41q-60 41 -92 41q-4 0 -8 -1 q-41 -8 -64 -42q-10 -16 -15 -32z" />
<glyph unicode="&#xe4;" horiz-adv-x="1380" d="M125 544q0 225 159.5 384.5t384.5 159.5t385 -159l20 -22v165h136v-1072h-136v181l-20 -22q-160 -159 -385 -159t-384.5 159.5t-159.5 384.5zM254 544q0 -172 122 -293.5t293 -121.5q173 0 294 121q85 85 111 194v199q-26 109 -111 194q-121 122 -294 122 q-171 0 -293 -121.5t-122 -293.5zM354 1298q0 30 15.5 57.5t42.5 42t56 14.5t56 -14.5t42.5 -42t15.5 -57.5t-15 -57t-42 -42t-57 -15t-57 15t-42 42t-15 57zM754 1298q0 30 15.5 57.5t42.5 42t56 14.5t56 -14.5t42.5 -42t15.5 -57.5t-15 -57t-42 -42t-57 -15t-57 15t-42 42 t-15 57z" />
<glyph unicode="&#xe5;" horiz-adv-x="1350" d="M125 544q0 225 160 385q130 130 305 154q-44 16 -80 52q-32 32 -48 71q-17 40 -17 87q0 92 65.5 157.5t157.5 65.5t157.5 -65.5t65.5 -157.5q0 -93 -65 -158q-37 -36 -81 -52q177 -23 309 -154l20 -22v165h136v-1072h-136v181l-20 -22q-160 -159 -385 -159t-384.5 159.5 t-159.5 384.5zM254 544q0 -172 122 -293.5t293 -121.5q173 0 294 121q85 85 111 194v199q-26 109 -111 194q-121 122 -294 122q-171 0 -293 -121.5t-122 -293.5zM552 1293q0 -49 34 -83t81 -34q49 0 83 34t34 83q0 48 -34 82t-83 34q-47 0 -81 -34t-34 -82z" />
<glyph unicode="&#xe6;" horiz-adv-x="2213" d="M75 544q0 225 159.5 384.5t384.5 159.5t385 -159l20 -22v165h136v-205q20 25 43 48q161 161 388 161q228 0 389 -161q134 -135 156 -314h-959q-6 -37 -6 -75q0 -174 123.5 -297t296.5 -123q174 0 298 123q101 101 119 236h130q-19 -189 -158 -328q-161 -161 -389 -161 q-227 0 -388 161q-23 23 -43 47v-184h-136v181l-20 -22q-160 -159 -385 -159t-384.5 159.5t-159.5 384.5zM204 544q0 -172 122 -293.5t293 -121.5q173 0 294 121q85 85 111 194v199q-26 109 -111 194q-121 122 -294 122q-171 0 -293 -121.5t-122 -293.5zM1227 736h729 q-27 46 -67 87q-124 123 -298 123q-173 0 -296 -123q-41 -41 -68 -87z" />
<glyph unicode="&#xe7;" horiz-adv-x="1339" d="M125 541q0 229 163.5 392.5t394.5 163.5q109 0 207 -38l-96 -113q-55 14 -111 14q-171 0 -294 -123t-123 -296q0 -174 123 -296.5t294 -122.5q172 0 295 123q105 104 121 251h140q-16 -202 -162 -348q-125 -126 -292 -155l-47 -80q95 -26 113 -98q6 -26 6 -49 q0 -44 -22 -83q-38 -63 -147 -65h-6q-106 0 -175 68l87 66q44 -33 75 -33h2q40 2 53 34q6 15 6 28q0 15 -7 27q-15 23 -60 28h-9q-70 0 -79 43l72 107q-208 12 -358 162q-164 163 -164 393z" />
<glyph unicode="&#xe8;" horiz-adv-x="1292" d="M105 526q0 227 161.5 388.5t388.5 161.5q228 0 389 -161q134 -135 156 -314h-959q-6 -37 -6 -75q0 -174 123.5 -297t296.5 -123q174 0 298 123q101 101 119 236h130q-19 -189 -158 -328q-161 -161 -389 -161q-227 0 -388.5 161t-161.5 389zM291 736h729q-27 46 -67 87 q-124 123 -298 123q-173 0 -296 -123q-41 -41 -68 -87zM407 1463l93 93l277 -275l-94 -94z" />
<glyph unicode="&#xe9;" horiz-adv-x="1292" d="M105 526q0 227 161.5 388.5t388.5 161.5q228 0 389 -161q134 -135 156 -314h-959q-6 -37 -6 -75q0 -174 123.5 -297t296.5 -123q174 0 298 123q101 101 119 236h130q-19 -189 -158 -328q-161 -161 -389 -161q-227 0 -388.5 161t-161.5 389zM291 736h729q-27 46 -67 87 q-124 123 -298 123q-173 0 -296 -123q-41 -41 -68 -87zM530 1294l277 275l93 -93l-276 -276z" />
<glyph unicode="&#xea;" horiz-adv-x="1292" d="M105 526q0 227 161.5 388.5t388.5 161.5q228 0 389 -161q134 -135 156 -314h-959q-6 -37 -6 -75q0 -174 123.5 -297t296.5 -123q174 0 298 123q101 101 119 236h130q-19 -189 -158 -328q-161 -161 -389 -161q-227 0 -388.5 161t-161.5 389zM288 1200l367 322l364 -322 h-189l-175 148l-178 -148h-189zM291 736h729q-27 46 -67 87q-124 123 -298 123q-173 0 -296 -123q-41 -41 -68 -87z" />
<glyph unicode="&#xeb;" horiz-adv-x="1292" d="M105 526q0 227 161.5 388.5t388.5 161.5q228 0 389 -161q134 -135 156 -314h-959q-6 -37 -6 -75q0 -174 123.5 -297t296.5 -123q174 0 298 123q101 101 119 236h130q-19 -189 -158 -328q-161 -161 -389 -161q-227 0 -388.5 161t-161.5 389zM291 736h729q-27 46 -67 87 q-124 123 -298 123q-173 0 -296 -123q-41 -41 -68 -87zM340 1298q0 30 15.5 57.5t42.5 42t56 14.5t56 -14.5t42.5 -42t15.5 -57.5t-15 -57t-42 -42t-57 -15t-57 15t-42 42t-15 57zM740 1298q0 30 15.5 57.5t42.5 42t56 14.5t56 -14.5t42.5 -42t15.5 -57.5t-15 -57t-42 -42 t-57 -15t-57 15t-42 42t-15 57z" />
<glyph unicode="&#xec;" horiz-adv-x="286" d="M-104 1163l93 93l277 -275l-94 -94zM75 0v736h136v-736h-136z" />
<glyph unicode="&#xed;" horiz-adv-x="286" d="M20 994l277 275l93 -93l-276 -276zM75 0v736h136v-736h-136z" />
<glyph unicode="&#xee;" horiz-adv-x="286" d="M-152 900l297 322l294 -322h-189l-105 118l-108 -118h-189zM75 0v736h136v-736h-136z" />
<glyph unicode="&#xef;" horiz-adv-x="286" d="M-121 998q0 30 15.5 57.5t42.5 42t56 14.5t56 -14.5t42.5 -42t15.5 -57.5t-15 -57t-42 -42t-57 -15t-57 15t-42 42t-15 57zM75 0v736h136v-736h-136zM179 998q0 30 15.5 57.5t42.5 42t56 14.5t56 -14.5t42.5 -42t15.5 -57.5t-15 -57t-42 -42t-57 -15t-57 15t-42 42 t-15 57z" />
<glyph unicode="&#xf0;" horiz-adv-x="1233" d="M50 518q0 234 166.5 400.5t400.5 166.5q68 0 130 -14l-144 226h-299v130h216l-214 336h167l217 -336h269v-130h-185l244 -378q165 -167 165 -401q0 -235 -165.5 -401t-400.5 -166q-234 0 -400.5 166t-166.5 401zM184 518q0 -179 127 -306t306 -127q180 0 306.5 127 t126.5 306q0 178 -126.5 305.5t-306.5 127.5q-179 0 -306 -127.5t-127 -305.5z" />
<glyph unicode="&#xf1;" horiz-adv-x="1281" d="M115 0v1076h136v-171q177 183 402 183q91 0 172 -26q116 -39 211 -132q83 -83 121 -184q34 -81 34 -187v-559h-136v578q-15 144 -120 249q-117 116 -282 116q-164 0 -280 -116q-114 -114 -121 -271v-556h-137zM334 1247q9 28 27 55q51 76 142 95q14 2 28 3q8 1 17 1 q64 0 125 -41q60 -41 92 -41q4 0 8 1q40 8 64 43q16 24 17 51l118 -44q-9 -39 -33 -75q-52 -77 -142 -94q-14 -3 -28 -4q-9 -1 -17 -1q-66 0 -125 41q-60 41 -92 41q-4 0 -8 -1q-41 -8 -64 -42q-10 -16 -15 -32z" />
<glyph unicode="&#xf2;" horiz-adv-x="1293" d="M80 518q0 234 166.5 400.5t400.5 166.5q235 0 400.5 -166.5t165.5 -400.5q0 -235 -165.5 -401t-400.5 -166q-234 0 -400.5 166t-166.5 401zM214 518q0 -179 127 -306t306 -127q180 0 306.5 127t126.5 306q0 178 -126.5 305.5t-306.5 127.5q-179 0 -306 -127.5 t-127 -305.5zM400 1463l93 93l277 -275l-94 -94z" />
<glyph unicode="&#xf3;" horiz-adv-x="1293" d="M80 518q0 234 166.5 400.5t400.5 166.5q235 0 400.5 -166.5t165.5 -400.5q0 -235 -165.5 -401t-400.5 -166q-234 0 -400.5 166t-166.5 401zM214 518q0 -179 127 -306t306 -127q180 0 306.5 127t126.5 306q0 178 -126.5 305.5t-306.5 127.5q-179 0 -306 -127.5 t-127 -305.5zM523 1294l277 275l93 -93l-276 -276z" />
<glyph unicode="&#xf4;" horiz-adv-x="1293" d="M80 518q0 234 166.5 400.5t400.5 166.5q235 0 400.5 -166.5t165.5 -400.5q0 -235 -165.5 -401t-400.5 -166q-234 0 -400.5 166t-166.5 401zM214 518q0 -179 127 -306t306 -127q180 0 306.5 127t126.5 306q0 178 -126.5 305.5t-306.5 127.5q-179 0 -306 -127.5 t-127 -305.5zM281 1200l367 322l364 -322h-189l-175 148l-178 -148h-189z" />
<glyph unicode="&#xf5;" horiz-adv-x="1293" d="M80 518q0 234 166.5 400.5t400.5 166.5q235 0 400.5 -166.5t165.5 -400.5q0 -235 -165.5 -401t-400.5 -166q-234 0 -400.5 166t-166.5 401zM214 518q0 -179 127 -306t306 -127q180 0 306.5 127t126.5 306q0 178 -126.5 305.5t-306.5 127.5q-179 0 -306 -127.5 t-127 -305.5zM328 1247q9 28 27 55q51 76 142 95q14 2 28 3q8 1 17 1q64 0 125 -41q60 -41 92 -41q4 0 8 1q40 8 64 43q16 24 17 51l118 -44q-9 -39 -33 -75q-52 -77 -142 -94q-14 -3 -28 -4q-9 -1 -17 -1q-66 0 -125 41q-60 41 -92 41q-4 0 -8 -1q-41 -8 -64 -42 q-10 -16 -15 -32z" />
<glyph unicode="&#xf6;" horiz-adv-x="1293" d="M80 518q0 234 166.5 400.5t400.5 166.5q235 0 400.5 -166.5t165.5 -400.5q0 -235 -165.5 -401t-400.5 -166q-234 0 -400.5 166t-166.5 401zM214 518q0 -179 127 -306t306 -127q180 0 306.5 127t126.5 306q0 178 -126.5 305.5t-306.5 127.5q-179 0 -306 -127.5 t-127 -305.5zM333 1298q0 30 15.5 57.5t42.5 42t56 14.5t56 -14.5t42.5 -42t15.5 -57.5t-15 -57t-42 -42t-57 -15t-57 15t-42 42t-15 57zM733 1298q0 30 15.5 57.5t42.5 42t56 14.5t56 -14.5t42.5 -42t15.5 -57.5t-15 -57t-42 -42t-57 -15t-57 15t-42 42t-15 57z" />
<glyph unicode="&#xf7;" d="M122 669v130h955v-130h-955zM486 480q0 30 15.5 57.5t42.5 42t56 14.5t56 -14.5t42.5 -42t15.5 -57.5t-15 -57t-42 -42t-57 -15t-57 15t-42 42t-15 57zM486 988q0 30 15.5 57.5t42.5 42t56 14.5t56 -14.5t42.5 -42t15.5 -57.5t-15 -57t-42 -42t-57 -15t-57 15t-42 42 t-15 57z" />
<glyph unicode="&#xf8;" horiz-adv-x="1250" d="M75 516q0 227 161.5 388.5t388.5 161.5q116 0 215 -42l113 196l119 -56l-119 -206q32 -24 61 -53q161 -162 161 -389q0 -228 -161 -389t-389 -161q-118 0 -219 44l-114 -199l-114 66l115 200q-29 23 -56 50q-162 161 -162 389zM205 516q0 -174 124 -297q14 -15 30 -28 l415 719q-69 26 -149 26q-173 0 -296.5 -123.5t-123.5 -296.5zM472 124q71 -28 153 -28q175 0 298 123t123 297q0 173 -123 297q-17 17 -35 31z" />
<glyph unicode="&#xf9;" horiz-adv-x="1126" d="M130 406v670h136v-649q0 -125 87.5 -211.5t209.5 -86.5q124 0 211 87q80 79 86 190v670h136v-670q-7 -166 -127 -286q-127 -127 -306 -127t-306 127q-120 120 -127 286zM316 1463l93 93l277 -275l-94 -94z" />
<glyph unicode="&#xfa;" horiz-adv-x="1126" d="M130 406v670h136v-649q0 -125 87.5 -211.5t209.5 -86.5q124 0 211 87q80 79 86 190v670h136v-670q-7 -166 -127 -286q-127 -127 -306 -127t-306 127q-120 120 -127 286zM440 1294l277 275l93 -93l-276 -276z" />
<glyph unicode="&#xfb;" horiz-adv-x="1126" d="M130 406v670h136v-649q0 -125 87.5 -211.5t209.5 -86.5q124 0 211 87q80 79 86 190v670h136v-670q-7 -166 -127 -286q-127 -127 -306 -127t-306 127q-120 120 -127 286zM198 1200l367 322l364 -322h-189l-175 148l-178 -148h-189z" />
<glyph unicode="&#xfc;" horiz-adv-x="1126" d="M130 406v670h136v-649q0 -125 87.5 -211.5t209.5 -86.5q124 0 211 87q80 79 86 190v670h136v-670q-7 -166 -127 -286q-127 -127 -306 -127t-306 127q-120 120 -127 286zM249 1298q0 30 15.5 57.5t42.5 42t56 14.5t56 -14.5t42.5 -42t15.5 -57.5t-15 -57t-42 -42t-57 -15 t-57 15t-42 42t-15 57zM649 1298q0 30 15.5 57.5t42.5 42t56 14.5t56 -14.5t42.5 -42t15.5 -57.5t-15 -57t-42 -42t-57 -15t-57 15t-42 42t-15 57z" />
<glyph unicode="&#xfd;" horiz-adv-x="1286" d="M100 517v559h136v-578q15 -144 120 -249q117 -116 282 -116q164 0 280 116q114 114 121 271v556h137l-1 -1303q-3 -224 -157.5 -382.5t-379.5 -158.5q-91 0 -172 26q-116 39 -211 132q-83 83 -121 184q-28 66 -28 183v16h137q8 -175 113 -280q117 -116 282 -116 q164 0 280 116q114 114 121 271v406q-10 -12 -21 -23q-155 -159 -380 -159q-91 0 -172 26q-116 39 -211 132q-83 83 -121 184q-34 81 -34 187zM515 1294l277 275l93 -93l-276 -276z" />
<glyph unicode="&#xfe;" horiz-adv-x="1235" d="M75 -752v2576h136v-916q10 11 20 21q160 159 385 159t384.5 -159t159.5 -385q0 -225 -159.5 -384.5t-384.5 -159.5t-385 160q-10 10 -20 21v-933h-136zM211 445q26 -109 111 -194q121 -122 294 -122q172 0 293.5 122t121.5 293q0 173 -121.5 294.5t-293.5 121.5 q-173 0 -294 -122q-85 -84 -111 -194v-199z" />
<glyph unicode="&#xff;" horiz-adv-x="1286" d="M100 517v559h136v-578q15 -144 120 -249q117 -116 282 -116q164 0 280 116q114 114 121 271v556h137l-1 -1303q-3 -224 -157.5 -382.5t-379.5 -158.5q-91 0 -172 26q-116 39 -211 132q-83 83 -121 184q-28 66 -28 183v16h137q8 -175 113 -280q117 -116 282 -116 q164 0 280 116q114 114 121 271v406q-10 -12 -21 -23q-155 -159 -380 -159q-91 0 -172 26q-116 39 -211 132q-83 83 -121 184q-34 81 -34 187zM324 1298q0 30 15.5 57.5t42.5 42t56 14.5t56 -14.5t42.5 -42t15.5 -57.5t-15 -57t-42 -42t-57 -15t-57 15t-42 42t-15 57z M724 1298q0 30 15.5 57.5t42.5 42t56 14.5t56 -14.5t42.5 -42t15.5 -57.5t-15 -57t-42 -42t-57 -15t-57 15t-42 42t-15 57z" />
<glyph unicode="&#x152;" horiz-adv-x="2581" d="M75 936q0 412 293 704.5t704 292.5q268 0 485 -123v54h1024v-136h-888v-991h275v-136h-275v-465h888v-136h-1024v62q-217 -123 -485 -123q-411 0 -704 292t-293 705zM223 936q0 -351 249.5 -600t599.5 -249q274 0 485 150v1398q-211 150 -485 150q-350 0 -599.5 -250 t-249.5 -599z" />
<glyph unicode="&#x153;" horiz-adv-x="2201" d="M50 518q0 234 166.5 400.5t400.5 166.5q235 0 401 -166q61 -62 100 -134q37 69 98 130q161 161 388 161q228 0 389 -161q134 -135 156 -314h-959q-6 -37 -6 -75q0 -174 123.5 -297t296.5 -123q174 0 298 123q101 101 119 236h130q-19 -189 -158 -328q-161 -161 -389 -161 q-227 0 -388 161q-57 56 -94 121q-39 -76 -104 -141q-166 -166 -401 -166q-234 0 -400.5 166t-166.5 401zM184 518q0 -179 127 -306t306 -127q180 0 306.5 127t126.5 306q0 178 -126.5 305.5t-306.5 127.5q-179 0 -306 -127.5t-127 -305.5zM1240 736h729q-27 46 -67 87 q-124 123 -298 123q-173 0 -296 -123q-41 -41 -68 -87z" />
<glyph unicode="&#x178;" horiz-adv-x="1609" d="M0 1864h157l648 -1120l647 1120h157l-736 -1257l-1 -607h-135v607zM491 2090q0 30 15.5 57.5t42.5 42t56 14.5t56 -14.5t42.5 -42t15.5 -57.5t-15 -57t-42 -42t-57 -15t-57 15t-42 42t-15 57zM891 2090q0 30 15.5 57.5t42.5 42t56 14.5t56 -14.5t42.5 -42t15.5 -57.5 t-15 -57t-42 -42t-57 -15t-57 15t-42 42t-15 57z" />
<glyph unicode="&#x2c6;" horiz-adv-x="881" d="M75 1200l367 322l364 -322h-189l-175 148l-178 -148h-189z" />
<glyph unicode="&#x2dc;" horiz-adv-x="788" d="M75 1247q9 28 27 55q51 76 142 95q14 2 28 3q8 1 17 1q64 0 125 -41q60 -41 92 -41q4 0 8 1q40 8 64 43q16 24 17 51l118 -44q-9 -39 -33 -75q-52 -77 -142 -94q-14 -3 -28 -4q-9 -1 -17 -1q-66 0 -125 41q-60 41 -92 41q-4 0 -8 -1q-41 -8 -64 -42q-10 -16 -15 -32z" />
<glyph unicode="&#x2000;" horiz-adv-x="1180" />
<glyph unicode="&#x2001;" horiz-adv-x="2361" />
<glyph unicode="&#x2002;" horiz-adv-x="1180" />
<glyph unicode="&#x2003;" horiz-adv-x="2361" />
<glyph unicode="&#x2004;" horiz-adv-x="787" />
<glyph unicode="&#x2005;" horiz-adv-x="590" />
<glyph unicode="&#x2006;" horiz-adv-x="393" />
<glyph unicode="&#x2007;" horiz-adv-x="393" />
<glyph unicode="&#x2008;" horiz-adv-x="295" />
<glyph unicode="&#x2009;" horiz-adv-x="472" />
<glyph unicode="&#x200a;" horiz-adv-x="131" />
<glyph unicode="&#x2010;" horiz-adv-x="825" d="M75 606v130h675v-130h-675z" />
<glyph unicode="&#x2011;" horiz-adv-x="825" d="M75 606v130h675v-130h-675z" />
<glyph unicode="&#x2012;" horiz-adv-x="825" d="M75 606v130h675v-130h-675z" />
<glyph unicode="&#x2013;" horiz-adv-x="1426" d="M75 954v130h1276v-130h-1276z" />
<glyph unicode="&#x2014;" horiz-adv-x="1891" d="M75 958v130h1741v-130h-1741z" />
<glyph unicode="&#x2018;" horiz-adv-x="296" d="M0 1609q25 212 228 395l68 -120q-101 -99 -133 -204q8 -3 16 -7q27 -15 42 -42t15 -57t-15.5 -57.5t-42.5 -42t-56 -14.5t-56 14.5t-46.5 49t-19.5 85.5z" />
<glyph unicode="&#x2019;" horiz-adv-x="296" d="M0 1509q101 99 133 204q-8 3 -16 7q-27 15 -42 42t-15 57t15.5 57.5t42.5 42t56 14.5t56 -14.5t46.5 -49t19.5 -85.5q-25 -212 -228 -395z" />
<glyph unicode="&#x201a;" horiz-adv-x="296" d="M0 -174q101 99 133 204q-8 3 -16 7q-27 15 -42 42t-15 57t15.5 57.5t42.5 42t56 14.5t56 -14.5t46.5 -49t19.5 -85.5q-25 -212 -228 -395z" />
<glyph unicode="&#x201c;" horiz-adv-x="650" d="M0 1609q25 212 228 395l68 -120q-101 -99 -133 -204q8 -3 16 -7q27 -15 42 -42t15 -57t-15.5 -57.5t-42.5 -42t-56 -14.5t-56 14.5t-46.5 49t-19.5 85.5zM354 1609q25 212 228 395l68 -120q-101 -99 -133 -204q8 -3 16 -7q27 -15 42 -42t15 -57t-15.5 -57.5t-42.5 -42 t-56 -14.5t-56 14.5t-46.5 49t-19.5 85.5z" />
<glyph unicode="&#x201d;" horiz-adv-x="650" d="M0 1509q101 99 133 204q-8 3 -16 7q-27 15 -42 42t-15 57t15.5 57.5t42.5 42t56 14.5t56 -14.5t46.5 -49t19.5 -85.5q-25 -212 -228 -395zM354 1509q101 99 133 204q-8 3 -16 7q-27 15 -42 42t-15 57t15.5 57.5t42.5 42t56 14.5t56 -14.5t46.5 -49t19.5 -85.5 q-25 -212 -228 -395z" />
<glyph unicode="&#x201e;" horiz-adv-x="650" d="M0 -174q101 99 133 204q-8 3 -16 7q-27 15 -42 42t-15 57t15.5 57.5t42.5 42t56 14.5t56 -14.5t46.5 -49t19.5 -85.5q-25 -212 -228 -395zM354 -174q101 99 133 204q-8 3 -16 7q-27 15 -42 42t-15 57t15.5 57.5t42.5 42t56 14.5t56 -14.5t46.5 -49t19.5 -85.5 q-25 -212 -228 -395z" />
<glyph unicode="&#x2022;" horiz-adv-x="378" d="M75 735q0 30 15.5 57.5t42.5 42t56 14.5t56 -14.5t42.5 -42t15.5 -57.5t-15 -57t-42 -42t-57 -15t-57 15t-42 42t-15 57z" />
<glyph unicode="&#x2026;" horiz-adv-x="1744" d="M75 114q0 30 15.5 57.5t42.5 42t56 14.5t56 -14.5t42.5 -42t15.5 -57.5t-15 -57t-42 -42t-57 -15t-57 15t-42 42t-15 57zM758 114q0 30 15.5 57.5t42.5 42t56 14.5t56 -14.5t42.5 -42t15.5 -57.5t-15 -57t-42 -42t-57 -15t-57 15t-42 42t-15 57zM1441 114q0 30 15.5 57.5 t42.5 42t56 14.5t56 -14.5t42.5 -42t15.5 -57.5t-15 -57t-42 -42t-57 -15t-57 15t-42 42t-15 57z" />
<glyph unicode="&#x202f;" horiz-adv-x="472" />
<glyph unicode="&#x2039;" horiz-adv-x="472" d="M75 1v189l148 175l-148 178v189l322 -367z" />
<glyph unicode="&#x203a;" horiz-adv-x="472" d="M75 365l322 367v-189l-148 -178l148 -175v-189z" />
<glyph unicode="&#x205f;" horiz-adv-x="590" />
<glyph unicode="&#x20ac;" horiz-adv-x="1517" d="M-54 682l34 132h129q0 5 -1 11q-7 52 -8 103v18h-136l33 132h114q55 370 355 603q257 200 571 200q63 0 128 -8q183 -23 342 -109l-111 -108q-119 56 -250 72q-55 7 -108 7q-265 0 -482 -169q-245 -190 -296 -488h899l-44 -132h-868v-7q1 -47 7 -95l4 -30h863l-43 -132 h-788q72 -218 266 -369q217 -169 482 -169q53 0 108 7q131 16 250 72l111 -108q-159 -86 -342 -109q-65 -8 -128 -8q-314 0 -571 200q-250 195 -330 484h-190z" />
<glyph unicode="&#x2122;" horiz-adv-x="1360" d="M75 1730v140h498l356 -357l356 357v-788h-138v449l-220 -219l-228 225v-455h-140v648h-164v-648h-140v648h-180z" />
<glyph unicode="&#xe000;" horiz-adv-x="1070" d="M0 0v1070h1070v-1070h-1070z" />
<glyph unicode="&#xfb01;" horiz-adv-x="1048" d="M100 601v135h86v840q0 149 112 225q80 64 179 64q18 0 37 -2q49 -5 91 -24q61 -28 93 -73l-108 -74q-37 37 -91 43q-10 1 -19 1q-52 0 -95 -34q-61 -50 -61 -133v-833h558v-736h-136v601h-422v-601h-138v601h-86zM700 962q0 30 15.5 57.5t42.5 42t56 14.5t56 -14.5 t42.5 -42t15.5 -57.5t-15 -57t-42 -42t-57 -15t-57 15t-42 42t-15 57z" />
<glyph unicode="&#xfb02;" horiz-adv-x="1079" d="M100 601v135h86v840q0 149 112 225q80 64 179 64h104q92 -4 168 -64q103 -70 111 -202h1v-1263q0 -123 61 -163q38 -30 82 -33v-140q-93 3 -169 64q-108 76 -112 225v1280q0 83 -61 133q-43 34 -95 34h-87q-52 0 -95 -34q-61 -50 -61 -133v-833h180v-135h-180v-601h-138 v601h-86z" />
<glyph unicode="&#xfb03;" horiz-adv-x="1628" d="M100 601v135h86v840q0 149 112 225q80 64 179 64q18 0 37 -2q49 -5 91 -24q61 -28 93 -73l-108 -74q-37 37 -91 43q-10 1 -19 1q-52 0 -95 -34q-61 -50 -61 -133v-833h442v840q0 149 112 225q80 64 179 64q18 0 37 -2q49 -5 91 -24q61 -28 93 -73l-108 -74q-37 37 -91 43 q-10 1 -19 1q-52 0 -95 -34q-61 -50 -61 -133v-833h558v-736h-136v601h-422v-601h-138v601h-442v-601h-138v601h-86zM1280 962q0 30 15.5 57.5t42.5 42t56 14.5t56 -14.5t42.5 -42t15.5 -57.5t-15 -57t-42 -42t-57 -15t-57 15t-42 42t-15 57z" />
<glyph unicode="&#xfb04;" horiz-adv-x="1659" d="M100 601v135h86v840q0 149 112 225q80 64 179 64q18 0 37 -2q49 -5 91 -24q61 -28 93 -73l-108 -74q-37 37 -91 43q-10 1 -19 1q-52 0 -95 -34q-61 -50 -61 -133v-833h442v840q0 149 112 225q80 64 179 64h104q92 -4 168 -64q103 -70 111 -202h1v-1263q0 -123 61 -163 q38 -30 82 -33v-140q-93 3 -169 64q-108 76 -112 225v1280q0 83 -61 133q-43 34 -95 34h-87q-52 0 -95 -34q-61 -50 -61 -133v-833h180v-135h-180v-601h-138v601h-442v-601h-138v601h-86z" />
</font>
</defs>
</svg>
